<svg xmlns="http://www.w3.org/2000/svg" viewBox="0 0 400 400" width="400" height="400">
  <defs>
    <linearGradient id="paper2" x1="0" y1="0" x2="1" y2="1">
      <stop offset="0" stop-color="#F7F1E3"/>
      <stop offset="0.55" stop-color="#EEDFC1"/>
      <stop offset="1" stop-color="#E6D3B1"/>
    </linearGradient>
    <linearGradient id="rod2" x1="0" y1="0" x2="0" y2="1">
      <stop offset="0" stop-color="#4B3A2A"/>
      <stop offset="0.55" stop-color="#6A4E33"/>
      <stop offset="1" stop-color="#2F241A"/>
    </linearGradient>
    <linearGradient id="silk" x1="0" y1="0" x2="1" y2="0">
      <stop offset="0" stop-color="#2C5F2D" stop-opacity="0.0"/>
      <stop offset="0.2" stop-color="#2C5F2D" stop-opacity="0.22"/>
      <stop offset="0.8" stop-color="#2C5F2D" stop-opacity="0.22"/>
      <stop offset="1" stop-color="#2C5F2D" stop-opacity="0.0"/>
    </linearGradient>
    <filter id="shadow2" x="-20%" y="-20%" width="140%" height="140%">
      <feDropShadow dx="0" dy="5" stdDeviation="7" flood-color="#000" flood-opacity="0.16"/>
    </filter>
    <filter id="paperNoise2" x="-10%" y="-10%" width="120%" height="120%">
      <feTurbulence type="fractalNoise" baseFrequency="0.7" numOctaves="2" stitchTiles="stitch" />
      <feColorMatrix type="matrix" values="1 0 0 0 0  0 1 0 0 0  0 0 1 0 0  0 0 0 0.045 0"/>
    </filter>
  </defs>

  <g filter="url(#shadow2)">
    <rect x="78" y="54" width="244" height="22" rx="10" fill="url(#rod2)"/>
    <rect x="78" y="324" width="244" height="22" rx="10" fill="url(#rod2)"/>
    <rect x="64" y="62" width="16" height="286" rx="8" fill="url(#rod2)"/>
    <rect x="320" y="62" width="16" height="286" rx="8" fill="url(#rod2)"/>

    <rect x="82" y="78" width="236" height="244" rx="18" fill="url(#paper2)"/>
    <rect x="82" y="78" width="236" height="244" rx="18" fill="#000" opacity="0.045" filter="url(#paperNoise2)"/>

    <rect x="82" y="100" width="236" height="12" rx="6" fill="url(#silk)"/>
    <rect x="82" y="288" width="236" height="12" rx="6" fill="url(#silk)"/>

    <rect x="94" y="90" width="212" height="220" rx="14" fill="none" stroke="#8C6A3D" stroke-width="2" opacity="0.5"/>
    <path d="M110 112 H290" stroke="#C19A6B" stroke-width="1.4" opacity="0.28"/>
    <path d="M110 292 H290" stroke="#C19A6B" stroke-width="1.4" opacity="0.28"/>
  </g>
</svg>
